<?xml version="1.0" encoding="UTF-8" standalone="no"?>
<!-- Created with Inkscape (http://www.inkscape.org/) -->

<svg
   version="1.1"
   id="svg2"
   width="541.16699"
   height="472.42194"
   viewBox="0 0 541.167 472.42201"
   xmlns="http://www.w3.org/2000/svg"
   xmlns:svg="http://www.w3.org/2000/svg">
  <defs
     id="defs6">
    <clipPath
       clipPathUnits="userSpaceOnUse"
       id="clipPath32">
      <path
         d="M 0,500 H 500 V 0 H 0 Z"
         id="path30" />
    </clipPath>
    <clipPath
       clipPathUnits="userSpaceOnUse"
       id="clipPath136">
      <path
         d="M 0,500 H 500 V 0 H 0 Z"
         id="path134" />
    </clipPath>
    <clipPath
       clipPathUnits="userSpaceOnUse"
       id="clipPath148">
      <path
         d="M 66.5182,377.216 H 394.238 V 129.553 H 66.5182 Z"
         id="path146" />
    </clipPath>
    <clipPath
       clipPathUnits="userSpaceOnUse"
       id="clipPath178">
      <path
         d="M 0,500 H 500 V 0 H 0 Z"
         id="path176" />
    </clipPath>
    <clipPath
       clipPathUnits="userSpaceOnUse"
       id="clipPath194">
      <path
         d="M 155.175,384.558 H 307.777 V 88.4687 H 155.175 Z"
         id="path192" />
    </clipPath>
    <clipPath
       clipPathUnits="userSpaceOnUse"
       id="clipPath218">
      <path
         d="M 173.759,355.835 H 290.208 V 311.184 H 173.759 Z"
         id="path216" />
    </clipPath>
    <clipPath
       clipPathUnits="userSpaceOnUse"
       id="clipPath238">
      <path
         d="M 173.759,295.003 H 290.208 V 250.351 H 173.759 Z"
         id="path236" />
    </clipPath>
    <clipPath
       clipPathUnits="userSpaceOnUse"
       id="clipPath254">
      <path
         d="m 189.94,281.922 h 84.088 v -2.283 H 189.94 Z"
         id="path252" />
    </clipPath>
    <clipPath
       clipPathUnits="userSpaceOnUse"
       id="clipPath268">
      <path
         d="m 189.94,273.832 h 38.999 v -2.283 H 189.94 Z"
         id="path266" />
    </clipPath>
    <clipPath
       clipPathUnits="userSpaceOnUse"
       id="clipPath282">
      <path
         d="m 235.028,273.832 h 15.857 v -2.283 h -15.857 z"
         id="path280" />
    </clipPath>
    <clipPath
       clipPathUnits="userSpaceOnUse"
       id="clipPath296">
      <path
         d="M 173.759,234.17 H 290.208 V 189.518 H 173.759 Z"
         id="path294" />
    </clipPath>
    <clipPath
       clipPathUnits="userSpaceOnUse"
       id="clipPath316">
      <path
         d="m 173.759,173.337 h 62.03 v -44.652 h -62.03 z"
         id="path314" />
    </clipPath>
    <clipPath
       clipPathUnits="userSpaceOnUse"
       id="clipPath332">
      <path
         d="m 186.311,159.115 h 8.091 v -8.09 h -8.091 z"
         id="path330" />
    </clipPath>
    <clipPath
       clipPathUnits="userSpaceOnUse"
       id="clipPath348">
      <path
         d="m 198.447,162.351 h 8.091 v -8.09 h -8.091 z"
         id="path346" />
    </clipPath>
    <clipPath
       clipPathUnits="userSpaceOnUse"
       id="clipPath364">
      <path
         d="m 210.583,154.261 h 8.09 v -8.091 h -8.09 z"
         id="path362" />
    </clipPath>
    <clipPath
       clipPathUnits="userSpaceOnUse"
       id="clipPath380">
      <path
         d="M 0,500 H 500 V 0 H 0 Z"
         id="path378" />
    </clipPath>
    <clipPath
       clipPathUnits="userSpaceOnUse"
       id="clipPath404">
      <path
         d="m 331.841,162.132 h 13.906 v -14.793 h -13.906 z"
         id="path402" />
    </clipPath>
    <clipPath
       clipPathUnits="userSpaceOnUse"
       id="clipPath436">
      <path
         d="m 386.806,109.71 h 9.982 V 99.5377 h -9.982 z"
         id="path434" />
    </clipPath>
    <clipPath
       clipPathUnits="userSpaceOnUse"
       id="clipPath456">
      <path
         d="m 313.125,143.477 h 87.889 V 86.5187 h -87.889 z"
         id="path454" />
    </clipPath>
    <clipPath
       clipPathUnits="userSpaceOnUse"
       id="clipPath480">
      <path
         d="m 299.741,163.095 h 12.077 V 128.34 h -12.077 z"
         id="path478" />
    </clipPath>
    <clipPath
       clipPathUnits="userSpaceOnUse"
       id="clipPath500">
      <path
         d="m 320.326,189.38 h 6.043 v -10.44 h -6.043 z"
         id="path498" />
    </clipPath>
    <clipPath
       clipPathUnits="userSpaceOnUse"
       id="clipPath528">
      <path
         d="m 315.957,211.905 h 12.818 v -13.202 h -12.818 z"
         id="path526" />
    </clipPath>
    <clipPath
       clipPathUnits="userSpaceOnUse"
       id="clipPath596">
      <path
         d="m 405.482,105.952 h 13.613 V 91.4864 h -13.613 z"
         id="path594" />
    </clipPath>
    <clipPath
       clipPathUnits="userSpaceOnUse"
       id="clipPath640">
      <path
         d="M 0,500 H 500 V 0 H 0 Z"
         id="path638" />
    </clipPath>
    <clipPath
       clipPathUnits="userSpaceOnUse"
       id="clipPath692">
      <path
         d="m 161.165,303.899 h 3.713 v -15.496 h -3.713 z"
         id="path690" />
    </clipPath>
    <clipPath
       clipPathUnits="userSpaceOnUse"
       id="clipPath724">
      <path
         d="m 147.219,326.079 h 7.373 v -6.031 h -7.373 z"
         id="path722" />
    </clipPath>
    <clipPath
       clipPathUnits="userSpaceOnUse"
       id="clipPath756">
      <path
         d="m 108.333,265.061 h 41.836 V 120.005 h -41.836 z"
         id="path754" />
    </clipPath>
    <clipPath
       clipPathUnits="userSpaceOnUse"
       id="clipPath776">
      <path
         d="m 127.031,236.929 h 15.425 v -53.423 h -15.425 z"
         id="path774" />
    </clipPath>
    <clipPath
       clipPathUnits="userSpaceOnUse"
       id="clipPath796">
      <path
         d="m 129.892,265.002 h 28.9 V 117.589 h -28.9 z"
         id="path794" />
    </clipPath>
    <clipPath
       clipPathUnits="userSpaceOnUse"
       id="clipPath872">
      <path
         d="m 151.48,265.002 h 1.704 v -4.276 h -1.704 z"
         id="path870" />
    </clipPath>
    <clipPath
       clipPathUnits="userSpaceOnUse"
       id="clipPath892">
      <path
         d="m 125.569,267.294 h 1.704 v -4.276 h -1.704 z"
         id="path890" />
    </clipPath>
    <clipPath
       clipPathUnits="userSpaceOnUse"
       id="clipPath912">
      <path
         d="m 138.525,266.148 h 1.704 v -4.276 h -1.704 z"
         id="path910" />
    </clipPath>
  </defs>
  <g
     id="g10"
     transform="matrix(1.3333333,0,0,-1.3333333,-71.059998,565.38665)">
    <g
       id="g26"
       transform="translate(6,-4.5)">
      <g
         id="g28"
         clip-path="url(#clipPath32)">
        <path
           d="m 57.338,265.256 h 170.294 v 156.78 H 57.338 Z"
           style="fill:#e7e7e7;fill-opacity:1;fill-rule:nonzero;stroke:none"
           id="path42" />
        <path
           d="m 53.295,265.256 h 172.58 v 156.78 H 53.295 Z"
           style="fill:#f5f5f5;fill-opacity:1;fill-rule:nonzero;stroke:none"
           id="path44" />
        <path
           d="M 218.618,414.194 H 60.553 V 273.097 h 158.065 z"
           style="fill:#fafafa;fill-opacity:1;fill-rule:nonzero;stroke:none"
           id="path46" />
        <g
           id="g48"
           transform="translate(199.0879,273.0977)">
          <path
             d="M 0,0 -53.156,141.097 H -75.538 L -22.381,0 Z"
             style="fill:#ffffff;fill-opacity:1;fill-rule:nonzero;stroke:none"
             id="path50" />
        </g>
        <g
           id="g52"
           transform="translate(170.3628,273.0977)">
          <path
             d="M 0,0 -53.156,141.097 H -68.568 L -15.411,0 Z"
             style="fill:#ffffff;fill-opacity:1;fill-rule:nonzero;stroke:none"
             id="path54" />
        </g>
        <path
           d="M 122.718,414.194 H 114.06 V 273.097 h 8.658 z"
           style="fill:#e7e7e7;fill-opacity:1;fill-rule:nonzero;stroke:none"
           id="path56" />
        <path
           d="m 170.911,414.194 h -8.658 V 273.097 h 8.658 z"
           style="fill:#e7e7e7;fill-opacity:1;fill-rule:nonzero;stroke:none"
           id="path58" />
        <path
           d="M 121.156,420.025 H 110.212 V 268.122 h 10.944 z"
           style="fill:#f5f5f5;fill-opacity:1;fill-rule:nonzero;stroke:none"
           id="path60" />
        <path
           d="M 169.35,420.025 H 158.406 V 268.122 h 10.944 z"
           style="fill:#f5f5f5;fill-opacity:1;fill-rule:nonzero;stroke:none"
           id="path62" />
        <path
           d="M 61.323,414.194 H 60.552 V 273.097 h 0.771 z"
           style="fill:#e7e7e7;fill-opacity:1;fill-rule:nonzero;stroke:none"
           id="path64" />
        <path
           d="M 400.693,226.827 H 75 V 117.602 h 325.693 z"
           style="fill:#f0f0f0;fill-opacity:1;fill-rule:nonzero;stroke:none"
           id="path66" />
        <g
           id="g68"
           transform="translate(387.4414,182.6768)">
          <path
             d="m 0,0 v 35.229 c 0,1.505 -1.22,2.725 -2.724,2.725 h -293.741 c -1.505,0 -2.724,-1.22 -2.724,-2.725 V 0 c 0,-1.504 1.219,-2.724 2.724,-2.724 H -2.724 C -1.22,-2.724 0,-1.504 0,0"
             style="fill:#f5f5f5;fill-opacity:1;fill-rule:nonzero;stroke:none"
             id="path70" />
        </g>
        <g
           id="g72"
           transform="translate(387.4414,127.0811)">
          <path
             d="m 0,0 v 45.568 c 0,1.505 -1.22,2.724 -2.724,2.724 h -293.741 c -1.505,0 -2.724,-1.219 -2.724,-2.724 V 0 c 0,-1.505 1.219,-2.725 2.724,-2.725 H -2.724 C -1.22,-2.725 0,-1.505 0,0"
             style="fill:#f5f5f5;fill-opacity:1;fill-rule:nonzero;stroke:none"
             id="path74" />
        </g>
        <g
           id="g76"
           transform="translate(327.5488,221.3057)">
          <path
             d="m 0,0 v 0 h -179.404 c 0,-2.921 2.368,-5.29 5.29,-5.29 H -5.29 C -2.369,-5.29 0,-2.921 0,0"
             style="fill:#f0f0f0;fill-opacity:1;fill-rule:nonzero;stroke:none"
             id="path78" />
        </g>
        <g
           id="g80"
           transform="translate(327.5488,176.0488)">
          <path
             d="m 0,0 v 0 h -179.404 c 0,-2.921 2.368,-5.29 5.29,-5.29 H -5.29 C -2.369,-5.29 0,-2.921 0,0"
             style="fill:#f0f0f0;fill-opacity:1;fill-rule:nonzero;stroke:none"
             id="path82" />
        </g>
        <path
           d="M 425,226.827 H 400.693 V 117.602 H 425 Z"
           style="fill:#e7e7e7;fill-opacity:1;fill-rule:nonzero;stroke:none"
           id="path84" />
        <path
           d="M 400.693,226.827 H 75 v 6.733 h 325.693 z"
           style="fill:#fafafa;fill-opacity:1;fill-rule:nonzero;stroke:none"
           id="path86" />
        <g
           id="g88"
           transform="translate(372.0557,243.3105)">
          <path
             d="m 0,0 c 0,-5.385 4.365,-9.75 9.75,-9.75 5.385,0 9.75,4.365 9.75,9.75 z"
             style="fill:#f5f5f5;fill-opacity:1;fill-rule:nonzero;stroke:none"
             id="path90" />
        </g>
        <g
           id="g92"
           transform="translate(346.0664,243.3105)">
          <path
             d="m 0,0 c 0,-5.385 4.365,-9.75 9.75,-9.75 5.384,0 9.75,4.365 9.75,9.75 z"
             style="fill:#f5f5f5;fill-opacity:1;fill-rule:nonzero;stroke:none"
             id="path94" />
        </g>
        <g
           id="g96"
           transform="translate(78.502,236.8545)">
          <path
             d="m 0,0 c 0,-1.819 8.108,-3.294 18.11,-3.294 10.001,0 18.109,1.475 18.109,3.294 z"
             style="fill:#f5f5f5;fill-opacity:1;fill-rule:nonzero;stroke:none"
             id="path98" />
        </g>
        <g
           id="g100"
           transform="translate(78.502,238.5752)">
          <path
             d="m 0,0 c 0,-1.818 8.108,-3.293 18.11,-3.293 10.001,0 18.109,1.475 18.109,3.293 z"
             style="fill:#f5f5f5;fill-opacity:1;fill-rule:nonzero;stroke:none"
             id="path102" />
        </g>
        <path
           d="m 425,226.827 h -24.307 v 6.733 H 425 Z"
           style="fill:#e1e1e1;fill-opacity:1;fill-rule:nonzero;stroke:none"
           id="path104" />
        <path
           d="M 414.4,346.593 H 354.958 V 424.04 H 414.4 Z"
           style="fill:#ececec;fill-opacity:1;fill-rule:nonzero;stroke:none"
           id="path106" />
        <path
           d="m 411.635,346.593 h -59.442 v 77.447 h 59.442 z"
           style="fill:#f5f5f5;fill-opacity:1;fill-rule:nonzero;stroke:none"
           id="path108" />
        <path
           d="m 403.648,356.998 h -43.47 v 56.637 h 43.47 z"
           style="fill:#ffffff;fill-opacity:1;fill-rule:nonzero;stroke:none"
           id="path110" />
        <path
           d="m 372.838,264.107 h -93.915 v 59.442 h 93.915 z"
           style="fill:#ececec;fill-opacity:1;fill-rule:nonzero;stroke:none"
           id="path112" />
        <path
           d="m 369.979,264.107 h -93.916 v 59.442 h 93.916 z"
           style="fill:#f5f5f5;fill-opacity:1;fill-rule:nonzero;stroke:none"
           id="path114" />
        <path
           d="M 359.574,272.094 H 286.47 v 43.47 h 73.104 z"
           style="fill:#ffffff;fill-opacity:1;fill-rule:nonzero;stroke:none"
           id="path116" />
        <path
           d="m 447.17,283.033 h -48.333 v 47.623 h 48.333 z"
           style="fill:#ececec;fill-opacity:1;fill-rule:nonzero;stroke:none"
           id="path118" />
        <path
           d="m 444.404,283.033 h -48.333 v 47.623 h 48.333 z"
           style="fill:#f5f5f5;fill-opacity:1;fill-rule:nonzero;stroke:none"
           id="path120" />
        <path
           d="m 436.417,293.438 h -32.36 v 26.812 h 32.36 z"
           style="fill:#ffffff;fill-opacity:1;fill-rule:nonzero;stroke:none"
           id="path122" />
        <path
           d="m 339.598,339.986 h -48.333 v 47.623 h 48.333 z"
           style="fill:#ececec;fill-opacity:1;fill-rule:nonzero;stroke:none"
           id="path124" />
        <path
           d="m 336.832,339.986 h -48.333 v 47.623 h 48.333 z"
           style="fill:#f5f5f5;fill-opacity:1;fill-rule:nonzero;stroke:none"
           id="path126" />
        <path
           d="m 328.845,350.392 h -32.36 v 26.812 h 32.36 z"
           style="fill:#ffffff;fill-opacity:1;fill-rule:nonzero;stroke:none"
           id="path128" />
      </g>
    </g>
    <g
       id="g130"
       transform="translate(6,-4.5)">
      <g
         id="g132"
         clip-path="url(#clipPath136)">
        <g
           id="g138"
           transform="translate(266.4507,225.7441)">
          <path
             d="m 0,0 c -40.939,44.024 -97.401,13.524 -140.349,28.127 -52.556,17.869 -76.631,77.321 -46.227,107.485 26.071,25.867 63.26,3.445 99.396,3.185 49.347,-0.355 80.55,24.651 136.408,5.358 C 157.15,106.879 137.419,-29.176 87.675,-77.743 70.516,-94.498 54.742,-107.515 26.114,-81.229 0.142,-57.38 16.862,-18.134 0,0"
             style="fill:#007cff;fill-opacity:1;fill-rule:nonzero;stroke:none"
             id="path140" />
        </g>
        <g
           id="g142">
          <g
             id="g144" />
          <g
             id="g156">
            <g
               clip-path="url(#clipPath148)"
               opacity="0.899994"
               id="g154">
              <g
                 transform="translate(266.4507,225.7441)"
                 id="g152">
                <path
                   d="m 0,0 c -40.939,44.024 -97.401,13.524 -140.349,28.127 -52.556,17.869 -76.631,77.321 -46.227,107.485 26.071,25.867 63.26,3.445 99.396,3.185 49.347,-0.355 80.55,24.651 136.408,5.358 C 157.15,106.879 137.419,-29.176 87.675,-77.743 70.516,-94.498 54.742,-107.515 26.114,-81.229 0.142,-57.38 16.862,-18.134 0,0"
                   style="fill:#ffffff;fill-opacity:1;fill-rule:nonzero;stroke:none"
                   id="path150" />
              </g>
            </g>
          </g>
        </g>
      </g>
    </g>
    <g
       id="g172"
       transform="translate(6,-4.5)">
      <g
         id="g174"
         clip-path="url(#clipPath178)">
        <g
           id="g180"
           transform="translate(316.7876,377.2686)">
          <path
             d="m 0,0 h -1.039 c 0,7.97 -6.485,14.454 -14.455,14.454 v 1.039 C -6.95,15.493 0,8.543 0,0"
             style="fill:#007cff;fill-opacity:1;fill-rule:nonzero;stroke:none"
             id="path182" />
        </g>
        <g
           id="g184"
           transform="translate(301.2939,389.125)">
          <path
             d="m 0,0 h -138.023 c -6.521,0 -11.857,-5.336 -11.857,-11.856 v -281.51 c 0,-6.522 5.336,-11.857 11.857,-11.857 H 0 c 6.521,0 11.856,5.335 11.856,11.857 v 281.51 C 11.856,-5.336 6.521,0 0,0"
             style="fill:#007cff;fill-opacity:1;fill-rule:nonzero;stroke:none"
             id="path186" />
        </g>
        <g
           id="g188">
          <g
             id="g190" />
          <g
             id="g202">
            <g
               clip-path="url(#clipPath194)"
               opacity="0.949997"
               id="g200">
              <g
                 transform="translate(162.4648,88.4688)"
                 id="g198">
                <path
                   d="M 0,0 C -4.02,0 -7.29,3.271 -7.29,7.289 V 288.8 c 0,4.019 3.27,7.289 7.29,7.289 h 138.023 c 4.019,0 7.289,-3.27 7.289,-7.289 V 7.289 C 145.312,3.271 142.042,0 138.023,0 Z"
                   style="fill:#ffffff;fill-opacity:1;fill-rule:nonzero;stroke:none"
                   id="path196" />
              </g>
            </g>
          </g>
        </g>
        <g
           id="g204"
           transform="translate(239.7222,108.0225)">
          <path
             d="m 0,0 c 0,-4.554 -3.692,-8.245 -8.246,-8.245 -4.554,0 -8.246,3.691 -8.246,8.245 0,4.555 3.692,8.246 8.246,8.246 C -3.692,8.246 0,4.555 0,0"
             style="fill:#007cff;fill-opacity:1;fill-rule:nonzero;stroke:none"
             id="path206" />
        </g>
        <g
           id="g208"
           transform="translate(225.1733,385.3916)">
          <path
             d="m 0,0 c 0,-3.761 3.049,-6.811 6.811,-6.811 3.761,0 6.81,3.05 6.81,6.811 z"
             style="fill:#007cff;fill-opacity:1;fill-rule:nonzero;stroke:none"
             id="path210" />
        </g>
        <g
           id="g212">
          <g
             id="g214" />
          <g
             id="g226">
            <g
               clip-path="url(#clipPath218)"
               opacity="0.699997"
               id="g224">
              <g
                 transform="translate(276.5083,355.835)"
                 id="g222">
                <path
                   d="m 0,0 h -89.05 c -7.534,0 -13.7,-6.165 -13.7,-13.699 v -9.134 c 0,-7.535 6.166,-13.7 13.7,-13.7 H 0 l 13.7,-8.118 v 30.952 C 13.7,-6.165 7.535,0 0,0"
                   style="fill:#007cff;fill-opacity:1;fill-rule:nonzero;stroke:none"
                   id="path220" />
              </g>
            </g>
          </g>
        </g>
        <path
           d="M 274.028,340.472 H 189.94 v 2.283 h 84.088 z"
           style="fill:#ffffff;fill-opacity:1;fill-rule:nonzero;stroke:none"
           id="path228" />
        <path
           d="m 274.028,332.382 h -67.907 v 2.283 h 67.907 z"
           style="fill:#ffffff;fill-opacity:1;fill-rule:nonzero;stroke:none"
           id="path230" />
        <g
           id="g232">
          <g
             id="g234" />
          <g
             id="g246">
            <g
               clip-path="url(#clipPath238)"
               opacity="0.149994"
               id="g244">
              <g
                 transform="translate(187.4585,295.0029)"
                 id="g242">
                <path
                   d="m 0,0 h 89.05 c 7.534,0 13.7,-6.165 13.7,-13.7 v -9.134 c 0,-7.534 -6.166,-13.699 -13.7,-13.699 H 0 l -13.7,-8.119 V -13.7 C -13.7,-6.165 -7.535,0 0,0"
                   style="fill:#007cff;fill-opacity:1;fill-rule:nonzero;stroke:none"
                   id="path240" />
              </g>
            </g>
          </g>
        </g>
        <g
           id="g248">
          <g
             id="g250" />
          <g
             id="g260">
            <g
               clip-path="url(#clipPath254)"
               opacity="0.5"
               id="g258">
              <path
                 d="M 274.028,279.639 H 189.94 v 2.283 h 84.088 z"
                 style="fill:#007cff;fill-opacity:1;fill-rule:nonzero;stroke:none"
                 id="path256" />
            </g>
          </g>
        </g>
        <g
           id="g262">
          <g
             id="g264" />
          <g
             id="g274">
            <g
               clip-path="url(#clipPath268)"
               opacity="0.5"
               id="g272">
              <path
                 d="M 228.939,271.549 H 189.94 v 2.283 h 38.999 z"
                 style="fill:#007cff;fill-opacity:1;fill-rule:nonzero;stroke:none"
                 id="path270" />
            </g>
          </g>
        </g>
        <g
           id="g276">
          <g
             id="g278" />
          <g
             id="g288">
            <g
               clip-path="url(#clipPath282)"
               opacity="0.5"
               id="g286">
              <path
                 d="m 250.884,271.549 h -15.856 v 2.283 h 15.856 z"
                 style="fill:#007cff;fill-opacity:1;fill-rule:nonzero;stroke:none"
                 id="path284" />
            </g>
          </g>
        </g>
        <g
           id="g290">
          <g
             id="g292" />
          <g
             id="g304">
            <g
               clip-path="url(#clipPath296)"
               opacity="0.699997"
               id="g302">
              <g
                 transform="translate(276.5083,234.1699)"
                 id="g300">
                <path
                   d="m 0,0 h -89.05 c -7.534,0 -13.7,-6.165 -13.7,-13.7 v -9.133 c 0,-7.535 6.166,-13.7 13.7,-13.7 H 0 l 13.7,-8.119 V -13.7 C 13.7,-6.165 7.535,0 0,0"
                   style="fill:#007cff;fill-opacity:1;fill-rule:nonzero;stroke:none"
                   id="path298" />
              </g>
            </g>
          </g>
        </g>
        <path
           d="M 274.028,218.807 H 189.94 v 2.283 h 84.088 z"
           style="fill:#ffffff;fill-opacity:1;fill-rule:nonzero;stroke:none"
           id="path306" />
        <path
           d="m 274.028,210.716 h -67.907 v 2.283 h 67.907 z"
           style="fill:#ffffff;fill-opacity:1;fill-rule:nonzero;stroke:none"
           id="path308" />
        <g
           id="g310">
          <g
             id="g312" />
          <g
             id="g324">
            <g
               clip-path="url(#clipPath316)"
               opacity="0.149994"
               id="g322">
              <g
                 transform="translate(187.4585,173.3369)"
                 id="g320">
                <path
                   d="m 0,0 h 34.631 c 7.534,0 13.7,-6.165 13.7,-13.7 v -9.133 c 0,-7.535 -6.166,-13.7 -13.7,-13.7 H 0 l -13.7,-8.118 V -13.7 C -13.7,-6.165 -7.535,0 0,0"
                   style="fill:#007cff;fill-opacity:1;fill-rule:nonzero;stroke:none"
                   id="path318" />
              </g>
            </g>
          </g>
        </g>
        <g
           id="g326">
          <g
             id="g328" />
          <g
             id="g340">
            <g
               clip-path="url(#clipPath332)"
               opacity="0.5"
               id="g338">
              <g
                 transform="translate(194.4019,155.0693)"
                 id="g336">
                <path
                   d="m 0,0 c 0,-2.233 -1.811,-4.045 -4.045,-4.045 -2.234,0 -4.046,1.812 -4.046,4.045 0,2.234 1.812,4.046 4.046,4.046 C -1.811,4.046 0,2.234 0,0"
                   style="fill:#007cff;fill-opacity:1;fill-rule:nonzero;stroke:none"
                   id="path334" />
              </g>
            </g>
          </g>
        </g>
        <g
           id="g342">
          <g
             id="g344" />
          <g
             id="g356">
            <g
               clip-path="url(#clipPath348)"
               opacity="0.5"
               id="g354">
              <g
                 transform="translate(206.5376,158.3057)"
                 id="g352">
                <path
                   d="m 0,0 c 0,-2.233 -1.811,-4.045 -4.045,-4.045 -2.234,0 -4.046,1.812 -4.046,4.045 0,2.234 1.812,4.046 4.046,4.046 C -1.811,4.046 0,2.234 0,0"
                   style="fill:#007cff;fill-opacity:1;fill-rule:nonzero;stroke:none"
                   id="path350" />
              </g>
            </g>
          </g>
        </g>
        <g
           id="g358">
          <g
             id="g360" />
          <g
             id="g372">
            <g
               clip-path="url(#clipPath364)"
               opacity="0.5"
               id="g370">
              <g
                 transform="translate(218.6733,150.2158)"
                 id="g368">
                <path
                   d="m 0,0 c 0,-2.234 -1.811,-4.046 -4.045,-4.046 -2.234,0 -4.045,1.812 -4.045,4.046 0,2.233 1.811,4.045 4.045,4.045 C -1.811,4.045 0,2.233 0,0"
                   style="fill:#007cff;fill-opacity:1;fill-rule:nonzero;stroke:none"
                   id="path366" />
              </g>
            </g>
          </g>
        </g>
      </g>
    </g>
    <g
       id="g374"
       transform="translate(6,-4.5)">
      <g
         id="g376"
         clip-path="url(#clipPath380)">
        <g
           id="g382"
           transform="translate(344.3301,164.8018)">
          <path
             d="m 0,0 c 1.1,-2.188 2.084,-4.392 3.108,-6.596 1.013,-2.206 1.977,-4.433 2.926,-6.675 0.94,-2.245 1.88,-4.491 2.76,-6.78 0.894,-2.285 1.77,-4.577 2.581,-6.97 l -3.587,3.371 c 1.738,-0.666 4.037,-1.037 6.479,-1.122 2.444,-0.077 5.044,0.051 7.667,0.354 2.631,0.276 5.297,0.714 7.975,1.216 2.659,0.502 5.405,1.117 7.988,1.725 l 2.369,-5.752 c -2.67,-1.483 -5.29,-2.667 -8.051,-3.776 -2.745,-1.099 -5.569,-2.04 -8.492,-2.821 -2.931,-0.746 -5.955,-1.369 -9.165,-1.599 -3.199,-0.254 -6.618,-0.171 -10.29,0.842 l -2.344,0.646 -1.243,2.725 c -1.918,4.205 -3.992,8.534 -6.035,12.843 -1.021,2.161 -2.049,4.323 -3.045,6.5 -0.986,2.179 -2.023,4.352 -2.968,6.529 z"
             style="fill:#ffc4be;fill-opacity:1;fill-rule:nonzero;stroke:none"
             id="path384" />
        </g>
        <g
           id="g386"
           transform="translate(379.0132,141.54)">
          <path
             d="m 0,0 3.93,3.842 6.237,-6.756 c 0,0 -2.263,-3.943 -7.875,-1.648 z"
             style="fill:#ffc4be;fill-opacity:1;fill-rule:nonzero;stroke:none"
             id="path388" />
        </g>
        <g
           id="g390"
           transform="translate(388.8579,147.9229)">
          <path
             d="M 0,0 3.439,-5.616 0.322,-9.297 -5.915,-2.541 Z"
             style="fill:#ffc4be;fill-opacity:1;fill-rule:nonzero;stroke:none"
             id="path392" />
        </g>
        <g
           id="g394"
           transform="translate(326.6709,173.7939)">
          <path
             d="M 0,0 C 8.033,3.084 14.203,-1.524 24.309,-14.288 L 12.473,-26.455 c 0,0 -28.069,20.467 -12.473,26.455"
             style="fill:#1a2e35;fill-opacity:1;fill-rule:nonzero;stroke:none"
             id="path396" />
        </g>
        <g
           id="g398">
          <g
             id="g400" />
          <g
             id="g412">
            <g
               clip-path="url(#clipPath404)"
               opacity="0.199997"
               id="g410">
              <g
                 transform="translate(341.6943,160.5898)"
                 id="g408">
                <path
                   d="m 0,0 c -3.783,2.453 -7.078,1.757 -9.853,-0.52 1.05,-3.886 3.741,-8.345 6.33,-11.993 0.612,-0.478 0.976,-0.738 0.976,-0.738 l 6.6,6.786 C 3.554,-3.481 2.088,-1.341 0,0"
                   style="fill:#000000;fill-opacity:1;fill-rule:nonzero;stroke:none"
                   id="path406" />
              </g>
            </g>
          </g>
        </g>
        <g
           id="g414"
           transform="translate(387.6001,88.959)">
          <path
             d="M 0,0 9.575,1.11 8.782,20.756 -0.792,19.646 Z"
             style="fill:#ffc4be;fill-opacity:1;fill-rule:nonzero;stroke:none"
             id="path416" />
        </g>
        <g
           id="g418"
           transform="translate(397.2612,94.2021)">
          <path
             d="m 0,0 -10.788,-0.151 c -0.35,-0.005 -0.638,-0.28 -0.692,-0.661 l -1.22,-8.489 c -0.127,-0.88 0.54,-1.702 1.348,-1.675 3.355,0.114 4.894,0.368 9.124,0.429 2.603,0.038 10.47,-0.149 14.064,-0.098 3.516,0.052 3.844,4.012 2.352,4.348 C 7.5,-4.787 3.652,-2.646 1.422,-0.565 1.021,-0.19 0.512,0.008 0,0"
             style="fill:#1a2e35;fill-opacity:1;fill-rule:nonzero;stroke:none"
             id="path420" />
        </g>
        <g
           id="g422"
           transform="translate(398.6763,93.6436)">
          <path
             d="M 0,0 C 0.846,0.729 1.883,1.824 1.818,2.371 1.81,2.44 1.783,2.53 1.64,2.609 1.376,2.756 1.15,2.773 0.956,2.667 0.493,2.414 0.145,1.431 0,0 M 0.873,3.062 C 1.152,3.173 1.463,3.135 1.799,2.948 2.083,2.79 2.167,2.561 2.186,2.396 2.308,1.354 0.141,-0.399 -0.106,-0.596 c -0.056,-0.045 -0.137,-0.05 -0.202,-0.009 -0.066,0.039 -0.105,0.114 -0.1,0.191 0.072,1.078 0.32,2.956 1.177,3.427 0.034,0.018 0.068,0.034 0.104,0.049"
             style="fill:#007cff;fill-opacity:1;fill-rule:nonzero;stroke:none"
             id="path424" />
        </g>
        <g
           id="g426"
           transform="translate(401.3135,93.0107)">
          <path
             d="M 0,0 C 0.037,0.015 0.072,0.031 0.105,0.05 0.271,0.145 0.368,0.283 0.401,0.475 0.444,0.717 0.359,0.805 0.281,0.854 -0.2,1.157 -1.672,0.76 -2.459,0.253 -1.772,0.031 -0.615,-0.246 0,0 m -1.865,0.978 c 0.823,0.329 1.823,0.52 2.323,0.205 C 0.608,1.087 0.849,0.856 0.766,0.382 0.712,0.081 0.555,-0.146 0.297,-0.292 c -0.967,-0.549 -3.121,0.27 -3.213,0.305 -0.063,0.024 -0.11,0.081 -0.126,0.148 -0.014,0.068 0.007,0.138 0.055,0.182 0.228,0.209 0.646,0.444 1.122,0.635"
             style="fill:#007cff;fill-opacity:1;fill-rule:nonzero;stroke:none"
             id="path428" />
        </g>
        <g
           id="g430">
          <g
             id="g432" />
          <g
             id="g444">
            <g
               clip-path="url(#clipPath436)"
               opacity="0.199997"
               id="g442">
              <g
                 transform="translate(386.8057,108.5986)"
                 id="g440">
                <path
                   d="M 0,0 9.579,1.111 9.982,-9.016 0.361,-9.061 Z"
                   style="fill:#000000;fill-opacity:1;fill-rule:nonzero;stroke:none"
                   id="path438" />
              </g>
            </g>
          </g>
        </g>
        <g
           id="g446"
           transform="translate(339.8403,120.0059)">
          <path
             d="m 0,0 c 0,0 24.856,23.124 40.966,23.471 11.784,0.253 20.208,-38.703 20.208,-38.703 l -13.966,-0.272 c 0,0 -2.457,13.775 -11.612,17.582 C 22.382,-17.764 -31.506,-56.971 -26.372,-14.471 -18.413,-11.464 0,0 0,0"
             style="fill:#007cff;fill-opacity:1;fill-rule:nonzero;stroke:none"
             id="path448" />
        </g>
        <g
           id="g450">
          <g
             id="g452" />
          <g
             id="g464">
            <g
               clip-path="url(#clipPath456)"
               opacity="0.199997"
               id="g462">
              <g
                 transform="translate(339.8403,120.0059)"
                 id="g460">
                <path
                   d="m 0,0 c 0,0 24.856,23.124 40.966,23.471 11.784,0.253 20.208,-38.703 20.208,-38.703 l -13.966,-0.272 c 0,0 -2.457,13.775 -11.612,17.582 C 22.382,-17.764 -31.506,-56.971 -26.372,-14.471 -18.413,-11.464 0,0 0,0"
                   style="fill:#000000;fill-opacity:1;fill-rule:nonzero;stroke:none"
                   id="path458" />
              </g>
            </g>
          </g>
        </g>
        <g
           id="g466"
           transform="translate(400.9849,102.8271)">
          <path
             d="m 0,0 -16.455,-1.577 0.051,6 17.413,2.068 z"
             style="fill:#1a2e35;fill-opacity:1;fill-rule:nonzero;stroke:none"
             id="path468" />
        </g>
        <g
           id="g470"
           transform="translate(307.2017,104.0635)">
          <path
             d="m 0,0 c 0,0 -10.692,20.873 -11.981,54.506 -0.304,7.923 6.829,15.388 14.976,15.812 6.866,0.359 14.12,0.449 19.97,0.426 5.874,-0.023 10.383,-3.922 11.054,-9.574 1.482,-12.487 1.735,-31.43 9.394,-54.015 z"
             style="fill:#1a2e35;fill-opacity:1;fill-rule:nonzero;stroke:none"
             id="path472" />
        </g>
        <g
           id="g474">
          <g
             id="g476" />
          <g
             id="g488">
            <g
               clip-path="url(#clipPath480)"
               opacity="0.199997"
               id="g486">
              <g
                 transform="translate(300.2144,158.3955)"
                 id="g484">
                <path
                   d="M 0,0 C 5.882,6.657 7.911,4.536 8.794,3.736 16.957,-3.66 4.974,-26.663 2.575,-30.056 1.09,-22.598 -0.084,-13.843 -0.465,-3.993 -0.513,-2.634 -0.353,-1.296 0,0"
                   style="fill:#000000;fill-opacity:1;fill-rule:nonzero;stroke:none"
                   id="path482" />
              </g>
            </g>
          </g>
        </g>
        <g
           id="g490"
           transform="translate(318.1582,194.3672)">
          <path
             d="m 0,0 c -0.658,-6.126 -2.28,-15.539 -6.452,-19.911 3.283,-3.082 8.62,-6.124 16.211,-7.394 3.924,1.622 4.445,5.23 2.546,7.74 -6.701,1.17 -6.628,3.071 -4.091,7.34 z"
             style="fill:#ffc4be;fill-opacity:1;fill-rule:nonzero;stroke:none"
             id="path492" />
        </g>
        <g
           id="g494">
          <g
             id="g496" />
          <g
             id="g508">
            <g
               clip-path="url(#clipPath500)"
               opacity="0.199997"
               id="g506">
              <g
                 transform="translate(321.5059,189.3799)"
                 id="g504">
                <path
                   d="M 0,0 4.863,-7.23 C 4.259,-8.24 3.626,-9.424 3.375,-10.44 0.996,-9.478 -1.649,-5.797 -1.109,-3.125 -0.839,-1.792 -0.399,-0.555 0,0"
                   style="fill:#000000;fill-opacity:1;fill-rule:nonzero;stroke:none"
                   id="path502" />
              </g>
            </g>
          </g>
        </g>
        <g
           id="g510"
           transform="translate(335.7192,205.6699)">
          <path
             d="M 0,0 C 3.928,-4.172 12.192,-4.192 8.644,0.752 5.097,5.695 -3.06,3.249 0,0"
             style="fill:#1a2e35;fill-opacity:1;fill-rule:nonzero;stroke:none"
             id="path512" />
        </g>
        <g
           id="g514"
           transform="translate(319.7915,206.1162)">
          <path
             d="m 0,0 c -2.191,-7.954 -3.87,-12.479 -1.382,-18.005 3.741,-8.313 14.377,-8.519 18.852,-1.494 4.029,6.323 6.936,18.269 0.527,24.344 C 11.683,10.831 2.192,7.954 0,0"
             style="fill:#ffc4be;fill-opacity:1;fill-rule:nonzero;stroke:none"
             id="path516" />
        </g>
        <g
           id="g518"
           transform="translate(318.0171,198.7031)">
          <path
             d="m 0,0 c 0.981,0.173 5.941,1.676 8.352,3.992 2.716,2.61 2.734,5.13 1.983,6.285 -0.751,1.155 -6.456,3.361 -9.123,2.85 C -3.003,12.318 -1.963,4.85 -1.905,2.829 -1.848,0.809 0,0 0,0"
             style="fill:#ffc4be;fill-opacity:1;fill-rule:nonzero;stroke:none"
             id="path520" />
        </g>
        <g
           id="g522">
          <g
             id="g524" />
          <g
             id="g536">
            <g
               clip-path="url(#clipPath528)"
               opacity="0.699997"
               id="g534">
              <g
                 transform="translate(318.0171,198.7031)"
                 id="g532">
                <path
                   d="m 0,0 c 0.981,0.173 5.941,1.676 8.352,3.992 2.716,2.61 2.734,5.13 1.983,6.285 -0.751,1.155 -6.456,3.361 -9.123,2.85 C -3.003,12.318 -1.963,4.85 -1.905,2.829 -1.848,0.809 0,0 0,0"
                   style="fill:#1a2e35;fill-opacity:1;fill-rule:nonzero;stroke:none"
                   id="path530" />
              </g>
            </g>
          </g>
        </g>
        <g
           id="g538"
           transform="translate(313.8066,198.1475)">
          <path
             d="M 0,0 C 0.819,-1.854 2.389,-3.192 3.915,-3.814 6.209,-4.749 7.521,-2.774 7.021,-0.47 6.571,1.605 4.834,4.592 2.465,4.547 0.131,4.503 -0.937,2.12 0,0"
             style="fill:#ffc4be;fill-opacity:1;fill-rule:nonzero;stroke:none"
             id="path540" />
        </g>
        <g
           id="g542"
           transform="translate(321.3315,209.4502)">
          <path
             d="m 0,0 c 10.195,-2.184 17.444,-7.924 22.27,-4.471 3.413,2.443 1.172,6.892 -2.74,10.112 -3.338,2.748 -7.958,3.599 -9.398,5.854 -0.687,-2.471 1.577,-4.003 1.577,-4.003 0,0 -9.215,1.417 -11.763,3.819 -0.612,-1.432 1.755,-4.19 1.755,-4.19 0,0 -2.607,-2.47 -10.056,0.319 C -7.862,5.048 -5.797,1.241 0,0"
             style="fill:#1a2e35;fill-opacity:1;fill-rule:nonzero;stroke:none"
             id="path544" />
        </g>
        <g
           id="g546"
           transform="translate(341.5908,204.1699)">
          <path
             d="m 0,0 c -0.133,0 -0.267,0.004 -0.403,0.014 l 0.034,0.517 c 1.973,-0.125 3.566,0.792 4.249,2.467 0.695,1.7 0.393,4.276 -1.845,6.201 -0.8,0.69 -1.802,1.192 -2.863,1.724 -2.374,1.191 -5.066,2.541 -6.363,6.47 l 0.493,0.162 c 1.231,-3.723 3.708,-4.965 6.103,-6.167 1.09,-0.547 2.12,-1.064 2.97,-1.794 C 4.809,7.5 5.126,4.674 4.361,2.801 3.637,1.027 2.023,0 0,0"
             style="fill:#1a2e35;fill-opacity:1;fill-rule:nonzero;stroke:none"
             id="path548" />
        </g>
        <g
           id="g550"
           transform="translate(331.3486,198.3477)">
          <path
             d="M 0,0 C -0.217,-0.632 -0.063,-1.276 0.343,-1.438 0.749,-1.601 1.253,-1.22 1.47,-0.587 1.687,0.045 1.533,0.689 1.127,0.852 0.721,1.014 0.216,0.633 0,0"
             style="fill:#1a2e35;fill-opacity:1;fill-rule:nonzero;stroke:none"
             id="path552" />
        </g>
        <g
           id="g554"
           transform="translate(338.8926,196.0742)">
          <path
             d="M 0,0 C -0.216,-0.632 -0.063,-1.276 0.343,-1.438 0.75,-1.601 1.254,-1.22 1.471,-0.587 1.687,0.045 1.534,0.689 1.127,0.852 0.722,1.014 0.217,0.633 0,0"
             style="fill:#1a2e35;fill-opacity:1;fill-rule:nonzero;stroke:none"
             id="path556" />
        </g>
        <g
           id="g558"
           transform="translate(336.1206,196.8359)">
          <path
             d="M 0,0 C 0,0 0.163,-4.213 1.115,-6.595 -0.341,-7.2 -2.046,-5.976 -2.046,-5.976 Z"
             style="fill:#ff857f;fill-opacity:1;fill-rule:nonzero;stroke:none"
             id="path560" />
        </g>
        <g
           id="g562"
           transform="translate(329.9888,189.3428)">
          <path
             d="M 0,0 C -2.251,1.269 -2.776,3.377 -2.799,3.475 -2.825,3.583 -2.762,3.688 -2.658,3.711 -2.555,3.732 -2.45,3.663 -2.424,3.556 -2.418,3.531 -1.801,1.08 0.917,-0.006 1.018,-0.047 1.071,-0.162 1.036,-0.265 1.001,-0.367 0.891,-0.418 0.79,-0.378 0.506,-0.264 0.243,-0.137 0,0"
             style="fill:#1a2e35;fill-opacity:1;fill-rule:nonzero;stroke:none"
             id="path564" />
        </g>
        <g
           id="g566"
           transform="translate(329.2964,202.4854)">
          <path
             d="M 0,0 C -0.058,0.032 -0.108,0.08 -0.146,0.141 -0.265,0.328 -0.217,0.574 -0.039,0.689 1.74,1.841 3.387,1.068 3.456,1.035 3.652,0.94 3.742,0.702 3.658,0.503 3.574,0.305 3.348,0.221 3.153,0.313 3.099,0.339 1.809,0.928 0.389,0.009 0.269,-0.069 0.12,-0.067 0,0"
             style="fill:#1a2e35;fill-opacity:1;fill-rule:nonzero;stroke:none"
             id="path568" />
        </g>
        <g
           id="g570"
           transform="translate(341.4585,197.9404)">
          <path
             d="m 0,0 c -0.12,0.041 -0.221,0.141 -0.261,0.274 -0.51,1.701 -1.841,2.171 -1.898,2.191 -0.204,0.069 -0.322,0.295 -0.263,0.503 0.058,0.209 0.27,0.323 0.474,0.256 C -1.874,3.197 -0.164,2.613 0.476,0.483 0.54,0.271 0.426,0.052 0.223,-0.006 0.147,-0.027 0.07,-0.023 0,0"
             style="fill:#1a2e35;fill-opacity:1;fill-rule:nonzero;stroke:none"
             id="path572" />
        </g>
        <g
           id="g574"
           transform="translate(420.8345,84.292)">
          <path
             d="M 0,0 5.699,8.293 -9.656,21.662 -15.355,13.369 Z"
             style="fill:#ffc4be;fill-opacity:1;fill-rule:nonzero;stroke:none"
             id="path576" />
        </g>
        <g
           id="g578"
           transform="translate(422.5933,96.502)">
          <path
             d="m 0,0 -6.694,-8.334 c -0.224,-0.279 -0.218,-0.685 0.016,-0.976 l 5.203,-6.482 c 0.54,-0.672 1.555,-0.681 2.062,-0.025 2.106,2.719 3.515,4.809 6.227,8.186 1.669,2.077 6.926,8.161 9.23,11.03 2.254,2.806 -0.33,5.64 -1.54,4.682 C 9.082,3.788 4.25,1.161 1.326,0.755 0.799,0.682 0.329,0.409 0,0"
             style="fill:#1a2e35;fill-opacity:1;fill-rule:nonzero;stroke:none"
             id="path580" />
        </g>
        <g
           id="g582"
           transform="translate(424.082,97.3916)">
          <path
             d="M 0,0 C -0.079,1.114 -0.337,2.6 -0.814,2.875 -0.875,2.91 -0.963,2.941 -1.111,2.874 -1.387,2.75 -1.536,2.58 -1.567,2.36 -1.641,1.838 -1.06,0.972 0,0 m -1.933,2.529 c 0.078,0.29 0.294,0.518 0.644,0.675 0.297,0.134 0.531,0.064 0.674,-0.019 0.908,-0.525 1.02,-3.31 1.03,-3.626 C 0.417,-0.513 0.373,-0.58 0.301,-0.609 0.23,-0.638 0.147,-0.625 0.088,-0.574 c -0.821,0.701 -2.179,2.023 -2.044,2.991 0.006,0.038 0.013,0.075 0.023,0.112"
             style="fill:#007cff;fill-opacity:1;fill-rule:nonzero;stroke:none"
             id="path584" />
        </g>
        <g
           id="g586"
           transform="translate(426.166,99.1279)">
          <path
             d="m 0,0 c 0.01,0.038 0.018,0.077 0.022,0.114 0.023,0.19 -0.03,0.35 -0.163,0.491 -0.169,0.179 -0.29,0.164 -0.377,0.13 C -1.048,0.531 -1.609,-0.887 -1.673,-1.82 -1.084,-1.402 -0.171,-0.64 0,0 m -1.899,-0.911 c 0.229,0.856 0.672,1.772 1.224,1.984 C -0.508,1.138 -0.179,1.192 0.15,0.842 0.36,0.62 0.448,0.357 0.412,0.063 0.273,-1.04 -1.67,-2.278 -1.753,-2.33 -1.81,-2.366 -1.884,-2.371 -1.948,-2.342 c -0.063,0.029 -0.106,0.087 -0.113,0.152 -0.031,0.308 0.03,0.784 0.162,1.279"
             style="fill:#007cff;fill-opacity:1;fill-rule:nonzero;stroke:none"
             id="path588" />
        </g>
        <g
           id="g590">
          <g
             id="g592" />
          <g
             id="g604">
            <g
               clip-path="url(#clipPath596)"
               opacity="0.199997"
               id="g602">
              <g
                 transform="translate(405.4819,97.6563)"
                 id="g600">
                <path
                   d="M 0,0 5.701,8.296 13.614,1.4 7.08,-6.17 Z"
                   style="fill:#000000;fill-opacity:1;fill-rule:nonzero;stroke:none"
                   id="path598" />
              </g>
            </g>
          </g>
        </g>
        <g
           id="g606"
           transform="translate(322.8096,107.1055)">
          <path
             d="M 0,0 C 0,0 43.703,44.407 63.366,25.405 75.618,13.564 93.621,-2.747 93.621,-2.747 L 83.149,-12.892 c 0,0 -26.419,14.047 -33.294,21.808 C 13.747,-31.443 -18.513,-34.207 -15.608,-3.042 -7.194,-0.816 0,0 0,0"
             style="fill:#007cff;fill-opacity:1;fill-rule:nonzero;stroke:none"
             id="path608" />
        </g>
        <g
           id="g610"
           transform="translate(419.5361,104.2656)">
          <path
             d="m 0,0 -11.455,-14.4 -4.863,3.269 11.707,15.289 z"
             style="fill:#1a2e35;fill-opacity:1;fill-rule:nonzero;stroke:none"
             id="path612" />
        </g>
        <g
           id="g614"
           transform="translate(307.3457,161.3916)">
          <path
             d="m 0,0 0.862,-18.205 c 0.162,-3.021 0.348,-6.03 0.582,-8.977 0.118,-1.473 0.276,-2.922 0.444,-4.313 0.082,-0.695 0.176,-1.378 0.283,-1.996 0.1,-0.633 0.231,-1.202 0.315,-1.548 0.016,-0.054 0.028,-0.108 0.035,-0.167 -0.027,0.083 -0.079,0.117 -0.137,0.22 -0.127,0.154 -0.315,0.387 -0.538,0.522 -0.212,0.156 -0.418,0.237 -0.545,0.265 -0.105,0.034 -0.17,0.009 -0.115,-0.011 0.184,-0.132 1.321,-0.106 2.447,0.158 2.342,0.525 5.066,1.545 7.693,2.734 2.663,1.171 5.329,2.519 7.99,3.917 2.665,1.373 5.337,2.889 7.932,4.343 l 3.739,-4.971 c -4.727,-4.33 -9.643,-8.218 -15.208,-11.672 -1.398,-0.853 -2.839,-1.67 -4.36,-2.441 -1.52,-0.775 -3.121,-1.489 -4.928,-2.077 -0.907,-0.293 -1.865,-0.558 -2.943,-0.747 -1.08,-0.183 -2.281,-0.309 -3.735,-0.173 -0.713,0.061 -1.529,0.229 -2.362,0.513 -0.848,0.3 -1.738,0.751 -2.56,1.378 -0.808,0.634 -1.548,1.421 -2.064,2.244 -0.284,0.416 -0.473,0.816 -0.686,1.235 l -0.378,0.914 c -0.412,1.112 -0.67,2.038 -0.887,2.914 -0.224,0.887 -0.402,1.722 -0.565,2.549 -0.325,1.653 -0.572,3.26 -0.798,4.85 -0.458,3.181 -0.791,6.316 -1.07,9.446 -0.559,6.266 -0.884,12.45 -0.997,18.741 z"
             style="fill:#ffc4be;fill-opacity:1;fill-rule:nonzero;stroke:none"
             id="path616" />
        </g>
        <g
           id="g618"
           transform="translate(304.2754,173.125)">
          <path
             d="m 0,0 c -4.71,-0.538 -11.758,-4.975 -12.01,-25.786 l 20.207,1.594 C 8.197,-24.192 17.69,2.021 0,0"
             style="fill:#1a2e35;fill-opacity:1;fill-rule:nonzero;stroke:none"
             id="path620" />
        </g>
        <g
           id="g622"
           transform="translate(351.5513,148.8496)">
          <path
             d="m 0,0 -7.497,-0.492 c -0.838,-0.055 -1.676,-0.811 -1.861,-1.68 l -3.51,-16.475 c -0.185,-0.87 0.349,-1.536 1.187,-1.48 l 7.497,0.491 c 0.839,0.055 1.676,0.811 1.861,1.68 L 1.187,-1.48 C 1.373,-0.611 0.838,0.055 0,0"
             style="fill:#007cff;fill-opacity:1;fill-rule:nonzero;stroke:none"
             id="path624" />
        </g>
        <g
           id="g626"
           transform="translate(335.1724,138.7119)">
          <path
             d="M 0,0 6.212,2.155 4.678,-7.574 c 0,0 -6.918,-1.523 -7.49,2.198 l 1.004,3.316 C -1.513,-1.087 -0.804,-0.278 0,0"
             style="fill:#ffc4be;fill-opacity:1;fill-rule:nonzero;stroke:none"
             id="path628" />
        </g>
        <g
           id="g630"
           transform="translate(348.4805,140.0518)">
          <path
             d="M 0,0 -2.691,-8.658 -8.63,-8.914 -7.096,0.815 Z"
             style="fill:#ffc4be;fill-opacity:1;fill-rule:nonzero;stroke:none"
             id="path632" />
        </g>
      </g>
    </g>
    <g
       id="g634"
       transform="translate(6,-4.5)">
      <g
         id="g636"
         clip-path="url(#clipPath640)">
        <g
           id="g642"
           transform="translate(133.375,344.0459)">
          <path
             d="M 0,0 C -4.873,11.331 21.738,23.192 29.253,5.554 42.023,0 25.701,-23.601 29.396,-27.6 c 3.695,-3.998 6.467,0.852 6.467,0.852 0,0 3.728,-9.933 -5.774,-17.899 -8.529,-7.15 -34.152,-9.088 -34.213,4.995 C -4.203,-21.378 6.407,-14.896 0,0"
             style="fill:#1a2e35;fill-opacity:1;fill-rule:nonzero;stroke:none"
             id="path644" />
        </g>
        <g
           id="g646"
           transform="translate(157.8481,106.1377)">
          <path
             d="m 0,0 -7.16,-4.166 -17.188,19.653 8.92,8.042 z"
             style="fill:#ff8c7b;fill-opacity:1;fill-rule:nonzero;stroke:none"
             id="path648" />
        </g>
        <g
           id="g650"
           transform="translate(149.873,103.7744)">
          <path
             d="M 0,0 7.383,5.666 C 7.651,5.873 8,5.865 8.223,5.648 l 4.947,-4.82 c 0.514,-0.5 0.395,-1.436 -0.232,-1.901 -2.605,-1.935 -3.951,-2.745 -7.198,-5.238 -1.997,-1.533 -5.983,-4.898 -8.741,-7.015 -2.698,-2.07 -4.823,0.323 -3.848,1.435 4.371,4.99 5.324,7.975 6.035,10.669 C -0.687,-0.735 -0.393,-0.302 0,0"
             style="fill:#1a2e35;fill-opacity:1;fill-rule:nonzero;stroke:none"
             id="path652" />
        </g>
        <g
           id="g654"
           transform="translate(146.0859,101.1797)">
          <path
             d="m 0,0 c -0.12,-0.093 -0.207,-0.185 -0.251,-0.276 -0.039,-0.082 -0.034,-0.156 0.016,-0.238 0.129,-0.211 0.302,-0.318 0.529,-0.328 0.651,-0.03 1.778,0.741 3.063,2.086 C 2.151,0.957 0.623,0.478 0,0 M 2.127,-0.374 C 1.474,-0.875 0.8,-1.243 0.249,-1.219 c -0.35,0.016 -0.624,0.182 -0.813,0.494 -0.114,0.186 -0.124,0.39 -0.028,0.59 0.495,1.031 4.055,1.789 4.459,1.872 C 3.947,1.754 4.025,1.719 4.062,1.65 4.099,1.582 4.086,1.495 4.03,1.434 3.55,0.901 2.851,0.182 2.127,-0.374"
             style="fill:#007cff;fill-opacity:1;fill-rule:nonzero;stroke:none"
             id="path656" />
        </g>
        <g
           id="g658"
           transform="translate(146.6499,103.8789)">
          <path
             d="m 0,0 c -0.031,-0.024 -0.061,-0.05 -0.09,-0.077 -0.264,-0.245 -0.203,-0.366 -0.183,-0.405 0.241,-0.474 2.077,-0.71 3.215,-0.55 C 2.503,-0.609 1.539,0.216 0.68,0.222 0.421,0.224 0.197,0.151 0,0 M 3.438,-1.292 C 3.416,-1.309 3.391,-1.321 3.364,-1.328 c -1.031,-0.27 -3.578,-0.133 -3.979,0.657 -0.095,0.187 -0.125,0.487 0.276,0.859 0.3,0.275 0.65,0.414 1.05,0.411 1.31,-0.01 2.706,-1.548 2.764,-1.614 C 3.518,-1.063 3.53,-1.132 3.508,-1.196 3.494,-1.234 3.469,-1.268 3.438,-1.292"
             style="fill:#007cff;fill-opacity:1;fill-rule:nonzero;stroke:none"
             id="path660" />
        </g>
        <g
           id="g662"
           transform="translate(131.8232,302.9189)">
          <path
             d="m 0,0 c -0.474,-2.147 -1.012,-4.093 -1.607,-6.102 -0.588,-1.992 -1.215,-3.97 -1.935,-5.921 -1.412,-3.909 -2.965,-7.785 -4.861,-11.543 l -1.47,-2.803 c -0.53,-0.92 -1.047,-1.843 -1.603,-2.751 l -0.86,-1.353 c -0.302,-0.461 -0.53,-0.869 -0.939,-1.406 -0.199,-0.263 -0.398,-0.523 -0.665,-0.829 -0.279,-0.309 -0.536,-0.612 -1.141,-1.076 -0.391,-0.25 -0.675,-0.534 -1.711,-0.807 -0.188,-0.051 -0.566,-0.101 -0.882,-0.099 -0.302,-0.006 -0.694,0.043 -1.068,0.151 -0.724,0.193 -1.381,0.673 -1.714,1.04 -0.708,0.78 -0.854,1.354 -0.97,1.697 -0.117,0.394 -0.153,0.659 -0.186,0.916 -0.092,0.95 -0.033,1.548 0.03,2.168 0.072,0.601 0.165,1.158 0.267,1.701 0.198,1.083 0.465,2.11 0.736,3.124 0.563,2.028 1.223,3.969 2.006,5.919 l 3.946,-0.88 -0.264,-5.952 c -0.047,-0.974 -0.066,-1.944 -0.076,-2.865 -10e-4,-0.459 0.01,-0.906 0.04,-1.311 0.027,-0.386 0.076,-0.801 0.128,-0.849 0.007,0.009 0.019,0.026 -0.018,0.181 -0.046,0.101 -0.079,0.442 -0.618,1.037 -0.249,0.275 -0.795,0.68 -1.398,0.844 -0.313,0.094 -0.645,0.123 -0.883,0.127 -0.253,0.008 -0.567,-0.048 -0.696,-0.075 -0.786,-0.219 -0.863,-0.347 -1.048,-0.455 -0.208,-0.151 -0.134,-0.07 -0.095,0.01 l 0.229,0.389 1.342,2.404 c 0.452,0.836 0.864,1.703 1.305,2.547 l 1.227,2.606 c 1.556,3.526 2.972,7.155 4.199,10.861 0.615,1.85 1.192,3.718 1.761,5.585 0.554,1.854 1.078,3.798 1.532,5.571 z"
             style="fill:#ff8c7b;fill-opacity:1;fill-rule:nonzero;stroke:none"
             id="path664" />
        </g>
        <g
           id="g666"
           transform="translate(128.4033,313.3291)">
          <path
             d="m 0,0 c -2.908,-0.47 -7.502,-18.899 -7.502,-18.899 l 6.685,-5.148 c 0,0 6.718,13.318 6.999,19.307 C 6.386,-0.396 2.186,0.354 0,0"
             style="fill:#ff8c7b;fill-opacity:1;fill-rule:nonzero;stroke:none"
             id="path668" />
        </g>
        <g
           id="g670"
           transform="translate(117.9106,283.1348)">
          <path
             d="M 0,0 -1.131,9.167 -6.379,1.465 c 0,0 0.673,-3.167 3.911,-3.69 z"
             style="fill:#ff8c7b;fill-opacity:1;fill-rule:nonzero;stroke:none"
             id="path672" />
        </g>
        <g
           id="g674"
           transform="translate(154.6025,90.5918)">
          <path
             d="M 0,0 -7.998,-0.276 -9.533,27.651 1.571,27.494 Z"
             style="fill:#ff8c7b;fill-opacity:1;fill-rule:nonzero;stroke:none"
             id="path676" />
        </g>
        <g
           id="g678"
           transform="translate(146.0566,92.8662)">
          <path
             d="m 0,0 8.972,0.063 c 0.327,0.003 0.576,-0.222 0.6,-0.54 l 0.542,-7.087 C 10.169,-8.3 9.489,-9.001 8.737,-8.993 c -3.125,0.032 -4.619,0.205 -8.565,0.177 -2.427,-0.018 -5.991,-0.295 -9.343,-0.319 -3.278,-0.023 -3.306,3.288 -1.89,3.598 6.35,1.39 7.464,3.252 9.693,5.037 0.402,0.321 0.89,0.497 1.368,0.5"
             style="fill:#1a2e35;fill-opacity:1;fill-rule:nonzero;stroke:none"
             id="path680" />
        </g>
        <g
           id="g682"
           transform="translate(127.9116,313.3848)">
          <path
             d="m 0,0 c 0,0 -3.98,-1.001 -4.038,-48.324 12.73,-1.126 25.886,-2.29 32.081,-2.838 1.601,13.191 2.905,21.297 13.538,47.719 0,0 -6.483,2.066 -13.33,3.011 -5.355,0.74 -9.75,1.304 -14.567,1.287 C 7.333,0.835 0,0 0,0"
             style="fill:#007cff;fill-opacity:1;fill-rule:nonzero;stroke:none"
             id="path684" />
        </g>
        <g
           id="g686">
          <g
             id="g688" />
          <g
             id="g700">
            <g
               clip-path="url(#clipPath692)"
               opacity="0.199997"
               id="g698">
              <g
                 transform="translate(163.1724,303.8994)"
                 id="g696">
                <path
                   d="M 0,0 1.706,-5.829 C 0.367,-9.438 -0.746,-12.626 -1.676,-15.496 -2.65,-10.11 -1.295,-3.076 0,0"
                   style="fill:#000000;fill-opacity:1;fill-rule:nonzero;stroke:none"
                   id="path694" />
              </g>
            </g>
          </g>
        </g>
        <g
           id="g702"
           transform="translate(116.7798,292.3018)">
          <path
             d="m 0,0 -5.248,-7.702 6.373,0.373 3.407,7.036 z"
             style="fill:#ff8c7b;fill-opacity:1;fill-rule:nonzero;stroke:none"
             id="path704" />
        </g>
        <g
           id="g706"
           transform="translate(120.106,274.5947)">
          <path
             d="m 0,0 6.048,0.088 c 0.837,0.013 1.475,0.756 1.36,1.585 L 5.537,15.125 c -0.097,0.696 -0.697,1.212 -1.4,1.201 l -6.048,-0.088 c -0.838,-0.012 -1.475,-0.755 -1.36,-1.585 L -1.4,1.201 C -1.303,0.505 -0.703,-0.01 0,0"
             style="fill:#1a2e35;fill-opacity:1;fill-rule:nonzero;stroke:none"
             id="path708" />
        </g>
        <g
           id="g710"
           transform="translate(157.4082,329.5918)">
          <path
             d="m 0,0 c -1.687,-4.637 -4.012,-13.2 -1.245,-16.639 0,0 -5.977,-5.413 -15.905,-9.651 -3.344,7.822 1.337,10.938 1.337,10.938 5.432,0.795 5.933,4.71 5.619,8.457 z"
             style="fill:#ff8c7b;fill-opacity:1;fill-rule:nonzero;stroke:none"
             id="path712" />
        </g>
        <g
           id="g714"
           transform="translate(135.4307,334.9072)">
          <path
             d="m 0,0 c -0.838,-13.885 -9.195,-17.866 -7.23,-24.971 2.768,-10.008 14.071,-2.165 14.071,-2.165 0,0 -6.15,-1.992 -6.539,2.858 -0.32,3.972 13.873,3.378 9.933,12.789 C 7.711,-5.46 0,0 0,0"
             style="fill:#1a2e35;fill-opacity:1;fill-rule:nonzero;stroke:none"
             id="path716" />
        </g>
        <g
           id="g718">
          <g
             id="g720" />
          <g
             id="g732">
            <g
               clip-path="url(#clipPath724)"
               opacity="0.199997"
               id="g730">
              <g
                 transform="translate(154.4956,326.0791)"
                 id="g728">
                <path
                   d="m 0,0 -7.277,-3.378 c 0.077,-0.888 0.104,-1.782 0.026,-2.643 1.52,-0.134 5.454,1.016 6.944,3.463 C 0.262,-1.623 0.09,-0.504 0,0"
                   style="fill:#000000;fill-opacity:1;fill-rule:nonzero;stroke:none"
                   id="path726" />
              </g>
            </g>
          </g>
        </g>
        <g
           id="g734"
           transform="translate(158.6685,342.6553)">
          <path
             d="m 0,0 c 0.732,-7.889 1.21,-11.212 -2.115,-15.834 -5,-6.953 -14.849,-6.127 -17.923,1.384 -2.766,6.76 -3.498,18.524 3.668,22.819 C -9.31,12.602 -0.731,7.888 0,0"
             style="fill:#ff8c7b;fill-opacity:1;fill-rule:nonzero;stroke:none"
             id="path736" />
        </g>
        <g
           id="g738"
           transform="translate(156.9272,350.5557)">
          <path
             d="M 0,0 C -6.219,4.272 -11.389,-3.922 -0.347,-11.899 10.696,-19.877 7.059,-4.851 0,0"
             style="fill:#1a2e35;fill-opacity:1;fill-rule:nonzero;stroke:none"
             id="path740" />
        </g>
        <g
           id="g742"
           transform="translate(153.6167,352.8506)">
          <path
             d="m 0,0 c 2.568,-2.31 -12.731,-10.826 -21.045,-8.012 -8.315,2.816 -1.646,9.181 1.385,9.96 -2.598,-2.511 1.949,-6.322 4.157,-3.94 C -13.294,0.39 -5.153,4.634 0,0"
             style="fill:#1a2e35;fill-opacity:1;fill-rule:nonzero;stroke:none"
             id="path744" />
        </g>
        <g
           id="g746"
           transform="translate(123.8735,265.0605)">
          <path
             d="m 0,0 c 0,0 -16.93,-71.691 -15.448,-89.789 1.732,-21.161 24.874,-55.267 24.874,-55.267 l 10.632,9.643 c 0,0 -10.557,27.945 -18.363,46.144 2.504,18.196 24.6,69.622 24.6,86.943 z"
             style="fill:#007cff;fill-opacity:1;fill-rule:nonzero;stroke:none"
             id="path748" />
        </g>
        <g
           id="g750">
          <g
             id="g752" />
          <g
             id="g764">
            <g
               clip-path="url(#clipPath756)"
               opacity="0.600006"
               id="g762">
              <g
                 transform="translate(123.8735,265.0605)"
                 id="g760">
                <path
                   d="m 0,0 c 0,0 -16.93,-71.691 -15.448,-89.789 1.732,-21.161 24.874,-55.267 24.874,-55.267 l 10.632,9.643 c 0,0 -10.557,27.945 -18.363,46.144 2.504,18.196 24.6,69.622 24.6,86.943 z"
                   style="fill:#000000;fill-opacity:1;fill-rule:nonzero;stroke:none"
                   id="path758" />
              </g>
            </g>
          </g>
        </g>
        <g
           id="g766"
           transform="translate(145.8887,128.2109)">
          <path
             d="m 0,0 -12.558,-9.366 -3.225,2.451 13.782,10.871 z"
             style="fill:#007cff;fill-opacity:1;fill-rule:nonzero;stroke:none"
             id="path768" />
        </g>
        <g
           id="g770">
          <g
             id="g772" />
          <g
             id="g784">
            <g
               clip-path="url(#clipPath776)"
               opacity="0.199997"
               id="g782">
              <g
                 transform="translate(136.3975,233.5273)"
                 id="g780">
                <path
                   d="m 0,0 c -9.323,-12.918 -9.78,-36.677 -9.198,-50.021 3.201,12.263 9.915,30.576 15.257,47.07 C 5.935,3.388 4.365,6.049 0,0"
                   style="fill:#000000;fill-opacity:1;fill-rule:nonzero;stroke:none"
                   id="path778" />
              </g>
            </g>
          </g>
        </g>
        <g
           id="g786"
           transform="translate(129.8921,265.002)">
          <path
             d="m 0,0 c 0,0 6.193,-61.915 8.265,-82.813 2.46,-24.809 6.071,-64.6 6.071,-64.6 l 11.945,0.497 c 0,0 2.619,33.733 0.673,55.963 0.356,29.506 4.706,69.614 -0.892,88.174 z"
             style="fill:#007cff;fill-opacity:1;fill-rule:nonzero;stroke:none"
             id="path788" />
        </g>
        <g
           id="g790">
          <g
             id="g792" />
          <g
             id="g804">
            <g
               clip-path="url(#clipPath796)"
               opacity="0.600006"
               id="g802">
              <g
                 transform="translate(129.8921,265.002)"
                 id="g800">
                <path
                   d="m 0,0 c 0,0 6.193,-61.915 8.265,-82.813 2.46,-24.809 6.071,-64.6 6.071,-64.6 l 11.945,0.497 c 0,0 2.619,33.733 0.673,55.963 0.356,29.506 4.706,69.614 -0.892,88.174 z"
                   style="fill:#000000;fill-opacity:1;fill-rule:nonzero;stroke:none"
                   id="path798" />
              </g>
            </g>
          </g>
        </g>
        <g
           id="g806"
           transform="translate(157.0757,115.9033)">
          <path
             d="m 0,0 -13.697,0.386 -0.958,4.31 15.496,0.43 z"
             style="fill:#007cff;fill-opacity:1;fill-rule:nonzero;stroke:none"
             id="path808" />
        </g>
        <g
           id="g810"
           transform="translate(146.4082,338.3027)">
          <path
             d="m 0,0 c 0.099,-0.636 -0.159,-1.204 -0.575,-1.269 -0.415,-0.064 -0.833,0.4 -0.931,1.036 -0.099,0.636 0.158,1.204 0.574,1.268 C -0.516,1.1 -0.099,0.637 0,0"
             style="fill:#1a2e35;fill-opacity:1;fill-rule:nonzero;stroke:none"
             id="path812" />
        </g>
        <g
           id="g814"
           transform="translate(139.2168,337.1875)">
          <path
             d="m 0,0 c 0.099,-0.636 -0.159,-1.204 -0.574,-1.269 -0.416,-0.064 -0.833,0.4 -0.932,1.036 -0.098,0.636 0.158,1.205 0.574,1.268 C -0.516,1.101 -0.099,0.637 0,0"
             style="fill:#1a2e35;fill-opacity:1;fill-rule:nonzero;stroke:none"
             id="path816" />
        </g>
        <g
           id="g818"
           transform="translate(138.4741,338.2168)">
          <path
             d="m 0,0 -1.596,0.203 c 0,0 0.969,-1.072 1.596,-0.203"
             style="fill:#1a2e35;fill-opacity:1;fill-rule:nonzero;stroke:none"
             id="path820" />
        </g>
        <g
           id="g822"
           transform="translate(141.5757,336.5635)">
          <path
             d="m 0,0 c 0,0 -0.655,-2.907 -1.638,-4.413 0.961,-0.653 2.334,-0.073 2.334,-0.073 z"
             style="fill:#ff5551;fill-opacity:1;fill-rule:nonzero;stroke:none"
             id="path824" />
        </g>
        <g
           id="g826"
           transform="translate(146.4102,330.332)">
          <path
             d="M 0,0 C -0.321,-0.109 -0.671,-0.197 -1.053,-0.257 -1.156,-0.273 -1.252,-0.202 -1.269,-0.099 -1.284,0.004 -1.216,0.1 -1.11,0.117 1.68,0.548 2.683,2.702 2.693,2.724 2.736,2.819 2.848,2.861 2.943,2.818 3.039,2.775 3.081,2.664 3.038,2.569 3,2.485 2.193,0.749 0,0"
             style="fill:#1a2e35;fill-opacity:1;fill-rule:nonzero;stroke:none"
             id="path828" />
        </g>
        <g
           id="g830"
           transform="translate(160.856,337.2666)">
          <path
             d="M 0,0 C -0.095,-1.64 -0.937,-3.083 -1.959,-3.964 -3.497,-5.29 -5.125,-4.123 -5.418,-2.222 -5.682,-0.511 -5.199,2.241 -3.31,2.835 -1.448,3.42 0.108,1.874 0,0"
             style="fill:#ff8c7b;fill-opacity:1;fill-rule:nonzero;stroke:none"
             id="path832" />
        </g>
        <g
           id="g834"
           transform="translate(149.6821,342.2441)">
          <path
             d="M 0,0 C -0.098,-0.021 -0.204,-0.002 -0.293,0.06 -1.678,1.021 -2.973,0.512 -2.987,0.505 -3.179,0.43 -3.401,0.52 -3.48,0.714 -3.559,0.907 -3.466,1.127 -3.272,1.206 -3.205,1.233 -1.581,1.874 0.139,0.681 0.31,0.562 0.353,0.326 0.233,0.154 0.176,0.071 0.091,0.019 0,0"
             style="fill:#1a2e35;fill-opacity:1;fill-rule:nonzero;stroke:none"
             id="path836" />
        </g>
        <g
           id="g838"
           transform="translate(136.1011,339.9521)">
          <path
             d="M 0,0 C -0.089,-0.03 -0.189,-0.027 -0.281,0.015 -0.471,0.103 -0.553,0.328 -0.465,0.517 0.413,2.415 2.137,2.686 2.211,2.696 2.418,2.726 2.61,2.583 2.64,2.376 2.669,2.17 2.527,1.979 2.321,1.947 2.253,1.938 0.919,1.709 0.221,0.199 0.175,0.102 0.094,0.032 0,0"
             style="fill:#1a2e35;fill-opacity:1;fill-rule:nonzero;stroke:none"
             id="path840" />
        </g>
        <g
           id="g842"
           transform="translate(171.646,300.3369)">
          <path
             d="m 0,0 c 0.153,-1.449 0.231,-2.715 0.276,-4.062 0.049,-1.329 0.069,-2.655 0.061,-3.982 -0.043,-2.656 -0.211,-5.315 -0.517,-7.984 -0.296,-2.669 -0.791,-5.343 -1.5,-8.01 -0.35,-1.335 -0.791,-2.663 -1.295,-3.983 -0.249,-0.66 -0.533,-1.316 -0.825,-1.969 -0.007,-0.024 -0.145,-0.315 -0.248,-0.501 -0.109,-0.208 -0.23,-0.404 -0.364,-0.582 -0.266,-0.38 -0.557,-0.676 -0.863,-0.962 -0.603,-0.524 -1.202,-0.857 -1.752,-1.103 -1.086,-0.46 -1.994,-0.619 -2.837,-0.72 -0.84,-0.095 -1.611,-0.112 -2.355,-0.099 -1.486,0.027 -2.862,0.181 -4.213,0.372 -2.687,0.416 -5.251,0.988 -7.771,1.675 -2.515,0.688 -4.988,1.45 -7.437,2.259 -2.441,0.858 -4.847,1.71 -7.255,2.719 l 1.248,3.846 c 2.43,-0.53 4.901,-1.094 7.359,-1.564 2.452,-0.516 4.909,-0.979 7.355,-1.361 2.444,-0.377 4.88,-0.729 7.239,-0.879 1.172,-0.081 2.332,-0.119 3.385,-0.058 0.524,0.029 1.024,0.083 1.441,0.166 0.41,0.079 0.754,0.198 0.83,0.255 0.024,0.023 -0.028,0.02 -0.151,-0.085 -0.085,-0.059 -0.146,-0.134 -0.239,-0.246 l -0.117,-0.177 c -0.031,-0.045 -0.087,-0.199 -0.041,-0.073 0.19,0.52 0.379,1.042 0.543,1.583 0.333,1.076 0.617,2.184 0.863,3.317 0.489,2.267 0.786,4.62 1.008,7 0.213,2.382 0.285,4.799 0.282,7.22 0.01,1.211 -0.006,2.424 -0.048,3.633 -0.046,1.188 -0.105,2.459 -0.182,3.538 z"
             style="fill:#ff8c7b;fill-opacity:1;fill-rule:nonzero;stroke:none"
             id="path844" />
        </g>
        <g
           id="g846"
           transform="translate(169.4595,309.9443)">
          <path
             d="m 0,0 c 3.451,-2.255 2.283,-21.866 2.283,-21.866 l -8.123,-1.625 c 0,0 -0.074,9.952 -0.943,16.482 C -7.369,-2.6 -2.458,1.606 0,0"
             style="fill:#ff8c7b;fill-opacity:1;fill-rule:nonzero;stroke:none"
             id="path848" />
        </g>
        <g
           id="g850"
           transform="translate(144.8398,92.0205)">
          <path
             d="M 0,0 C -0.948,0.59 -2.301,1.255 -2.805,1.03 -2.868,1.002 -2.946,0.949 -2.979,0.79 -3.041,0.494 -2.99,0.273 -2.831,0.118 -2.451,-0.247 -1.409,-0.287 0,0 M -3.182,-0.078 C -3.372,0.155 -3.428,0.464 -3.35,0.84 -3.283,1.159 -3.089,1.307 -2.938,1.374 -1.98,1.8 0.339,0.253 0.601,0.075 0.66,0.035 0.688,-0.04 0.67,-0.114 0.652,-0.189 0.592,-0.249 0.517,-0.267 c -1.051,-0.252 -2.918,-0.574 -3.621,0.105 -0.028,0.026 -0.054,0.055 -0.078,0.084"
             style="fill:#007cff;fill-opacity:1;fill-rule:nonzero;stroke:none"
             id="path852" />
        </g>
        <g
           id="g854"
           transform="translate(144.6602,94.7266)">
          <path
             d="M 0,0 C -0.025,0.03 -0.052,0.06 -0.08,0.085 -0.219,0.215 -0.38,0.267 -0.573,0.242 -0.816,0.211 -0.875,0.104 -0.899,0.014 -1.046,-0.536 -0.229,-1.823 0.49,-2.424 0.497,-1.702 0.417,-0.515 0,0 m -0.379,-2.072 c -0.559,0.689 -1.039,1.586 -0.886,2.157 0.046,0.172 0.195,0.471 0.672,0.531 C -0.29,0.655 -0.026,0.572 0.19,0.37 1.002,-0.39 0.861,-2.69 0.854,-2.788 0.85,-2.855 0.811,-2.918 0.75,-2.952 0.689,-2.986 0.617,-2.987 0.561,-2.955 c -0.268,0.156 -0.617,0.485 -0.94,0.883"
             style="fill:#007cff;fill-opacity:1;fill-rule:nonzero;stroke:none"
             id="path856" />
        </g>
        <g
           id="g858"
           transform="translate(156.7432,264.0752)">
          <path
             d="M 0,0 0.35,-2.963 C 0.425,-3.197 0.125,-3.402 -0.247,-3.369 l -33.017,2.92 c -0.289,0.025 -0.506,0.189 -0.494,0.374 l 0.181,2.916 c 0.013,0.202 0.291,0.349 0.607,0.322 L -0.483,0.289 C -0.244,0.268 -0.049,0.151 0,0"
             style="fill:#ffffff;fill-opacity:1;fill-rule:nonzero;stroke:none"
             id="path860" />
        </g>
        <g
           id="g862"
           transform="translate(151.7847,260.8047)">
          <path
             d="m 0,0 0.87,-0.077 c 0.173,-0.015 0.32,0.063 0.326,0.174 L 1.399,3.889 C 1.405,4 1.269,4.104 1.095,4.118 L 0.225,4.195 C 0.052,4.211 -0.095,4.133 -0.101,4.021 L -0.304,0.229 C -0.31,0.119 -0.173,0.016 0,0"
             style="fill:#007cff;fill-opacity:1;fill-rule:nonzero;stroke:none"
             id="path864" />
        </g>
        <g
           id="g866">
          <g
             id="g868" />
          <g
             id="g880">
            <g
               clip-path="url(#clipPath872)"
               opacity="0.600006"
               id="g878">
              <g
                 transform="translate(151.7847,260.8047)"
                 id="g876">
                <path
                   d="m 0,0 0.87,-0.077 c 0.173,-0.015 0.32,0.063 0.326,0.174 L 1.399,3.889 C 1.405,4 1.269,4.104 1.095,4.118 L 0.225,4.195 C 0.052,4.211 -0.095,4.133 -0.101,4.021 L -0.304,0.229 C -0.31,0.119 -0.173,0.016 0,0"
                   style="fill:#000000;fill-opacity:1;fill-rule:nonzero;stroke:none"
                   id="path874" />
              </g>
            </g>
          </g>
        </g>
        <g
           id="g882"
           transform="translate(125.873,263.0967)">
          <path
             d="m 0,0 0.87,-0.077 c 0.173,-0.015 0.32,0.063 0.326,0.174 L 1.399,3.889 C 1.405,4 1.269,4.103 1.095,4.118 L 0.225,4.195 C 0.052,4.211 -0.095,4.133 -0.101,4.021 L -0.304,0.229 C -0.31,0.119 -0.173,0.016 0,0"
             style="fill:#007cff;fill-opacity:1;fill-rule:nonzero;stroke:none"
             id="path884" />
        </g>
        <g
           id="g886">
          <g
             id="g888" />
          <g
             id="g900">
            <g
               clip-path="url(#clipPath892)"
               opacity="0.600006"
               id="g898">
              <g
                 transform="translate(125.873,263.0967)"
                 id="g896">
                <path
                   d="m 0,0 0.87,-0.077 c 0.173,-0.015 0.32,0.063 0.326,0.174 L 1.399,3.889 C 1.405,4 1.269,4.103 1.095,4.118 L 0.225,4.195 C 0.052,4.211 -0.095,4.133 -0.101,4.021 L -0.304,0.229 C -0.31,0.119 -0.173,0.016 0,0"
                   style="fill:#000000;fill-opacity:1;fill-rule:nonzero;stroke:none"
                   id="path894" />
              </g>
            </g>
          </g>
        </g>
        <g
           id="g902"
           transform="translate(138.8291,261.9512)">
          <path
             d="m 0,0 0.87,-0.077 c 0.173,-0.016 0.32,0.062 0.326,0.174 L 1.399,3.889 C 1.405,3.999 1.268,4.103 1.095,4.118 L 0.225,4.195 C 0.052,4.21 -0.095,4.132 -0.101,4.021 L -0.304,0.229 C -0.31,0.118 -0.173,0.015 0,0"
             style="fill:#007cff;fill-opacity:1;fill-rule:nonzero;stroke:none"
             id="path904" />
        </g>
        <g
           id="g906">
          <g
             id="g908" />
          <g
             id="g920">
            <g
               clip-path="url(#clipPath912)"
               opacity="0.600006"
               id="g918">
              <g
                 transform="translate(138.8291,261.9512)"
                 id="g916">
                <path
                   d="m 0,0 0.87,-0.077 c 0.173,-0.016 0.32,0.062 0.326,0.174 L 1.399,3.889 C 1.405,3.999 1.268,4.103 1.095,4.118 L 0.225,4.195 C 0.052,4.21 -0.095,4.132 -0.101,4.021 L -0.304,0.229 C -0.31,0.118 -0.173,0.015 0,0"
                   style="fill:#000000;fill-opacity:1;fill-rule:nonzero;stroke:none"
                   id="path914" />
              </g>
            </g>
          </g>
        </g>
        <g
           id="g922"
           transform="translate(135.25,276.8896)">
          <path
             d="m 0,0 -4.965,6.67 -2.084,-7.98 c 0,0 3.718,-3.252 6.88,-1.985 z"
             style="fill:#ff8c7b;fill-opacity:1;fill-rule:nonzero;stroke:none"
             id="path924" />
        </g>
        <g
           id="g926"
           transform="translate(123.8462,285.0273)">
          <path
             d="m 0,0 -1.388,-6.749 6.752,-3.447 1.074,8.728 z"
             style="fill:#ff8c7b;fill-opacity:1;fill-rule:nonzero;stroke:none"
             id="path928" />
        </g>
        <g
           id="g930"
           transform="translate(145.6655,339.3311)">
          <path
             d="m 0,0 -1.596,0.204 c 0,0 0.969,-1.072 1.596,-0.204"
             style="fill:#1a2e35;fill-opacity:1;fill-rule:nonzero;stroke:none"
             id="path932" />
        </g>
      </g>
    </g>
  </g>
</svg>
